<svg width="436" height="102" viewBox="0 0 436 102" fill="none" xmlns="http://www.w3.org/2000/svg">
<path d="M31.86 4.98C35.42 4.98 38.46 6.24 40.98 8.76C43.54 11.28 44.82 14.32 44.82 17.88V60C41.26 60 38.2 58.74 35.64 56.22C33.12 53.7 31.86 50.64 31.86 47.04V46.74C31.02 51.02 29.4 54.3 27 56.58C24.6 58.86 21.58 60 17.94 60C13.06 60 9.2 58.22 6.36 54.66C3.56 51.1 2.16 46.1 2.16 39.66C2.16 33.38 3.56 28.48 6.36 24.96C9.16 21.44 12.96 19.68 17.76 19.68C21.24 19.68 24.18 20.72 26.58 22.8C28.98 24.88 30.66 27.9 31.62 31.86V4.98H31.86ZM16.14 39.66C16.14 44.82 16.82 48.98 18.18 52.14C19.54 55.3 21.32 56.88 23.52 56.88C25.48 56.88 27.24 55.5 28.8 52.74C30.4 49.98 31.34 46.42 31.62 42.06V37.26C31.34 33.02 30.4 29.56 28.8 26.88C27.24 24.16 25.48 22.8 23.52 22.8C21.32 22.8 19.54 24.34 18.18 27.42C16.82 30.5 16.14 34.58 16.14 39.66ZM86.3175 45.48C85.8775 50.32 84.1375 53.96 81.0975 56.4C78.0575 58.8 74.1775 60 69.4575 60C62.8575 60 57.4975 58.14 53.3775 54.42C49.2575 50.7 47.1975 45.82 47.1975 39.78C47.1975 33.78 49.0775 28.94 52.8375 25.26C56.6375 21.54 61.5575 19.68 67.5975 19.68C72.9975 19.68 77.4175 21.36 80.8575 24.72C84.2975 28.08 85.9375 33.16 85.7775 39.96H61.1775C61.1775 46.36 62.1975 50.94 64.2375 53.7C66.3175 56.46 69.3575 57.84 73.3575 57.84C76.5975 57.84 79.3375 56.82 81.5775 54.78C83.8575 52.74 85.1975 49.64 85.5975 45.48H86.3175ZM67.5375 20.46C65.3375 20.46 63.7375 22.04 62.7375 25.2C61.7375 28.32 61.2175 33 61.1775 39.24H72.9975C72.9975 39 72.9975 38.6 72.9975 38.04C72.9975 36.48 72.9775 35.26 72.9375 34.38C72.9375 33.46 72.8975 32.2 72.8175 30.6C72.7375 28.96 72.5775 27.66 72.3375 26.7C72.0975 25.7 71.7775 24.68 71.3775 23.64C71.0175 22.56 70.4975 21.76 69.8175 21.24C69.1775 20.72 68.4175 20.46 67.5375 20.46ZM122.044 20.46H123.004L105.064 60H105.004L85.3837 20.46H86.0437C90.0037 20.46 93.6437 21.54 96.9637 23.7C100.324 25.82 102.824 28.66 104.464 32.22L107.644 39.12C108.244 40.36 109.244 40.98 110.644 40.98C112.084 40.98 113.064 40.36 113.584 39.12L122.044 20.46ZM163.324 39.66C163.324 43.54 162.284 47.08 160.204 50.28C158.124 53.44 155.504 55.86 152.344 57.54C149.224 59.18 145.984 60 142.624 60C139.264 60 136.004 59.18 132.844 57.54C129.724 55.86 127.124 53.44 125.044 50.28C122.964 47.08 121.924 43.54 121.924 39.66C121.924 33.94 124.064 29.18 128.344 25.38C132.624 21.58 137.384 19.68 142.624 19.68C147.904 19.68 152.664 21.58 156.904 25.38C161.184 29.18 163.324 33.94 163.324 39.66ZM135.904 39.66C135.904 46.38 136.424 51.32 137.464 54.48C138.544 57.64 140.264 59.22 142.624 59.22C144.984 59.22 146.704 57.64 147.784 54.48C148.864 51.32 149.404 46.38 149.404 39.66C149.404 33.06 148.864 28.22 147.784 25.14C146.704 22.02 144.984 20.46 142.624 20.46C140.264 20.46 138.544 22 137.464 25.08C136.424 28.16 135.904 33.02 135.904 39.66ZM192.274 45.54C192.274 50.38 191.034 54 188.554 56.4C186.074 58.8 183.174 60 179.854 60C178.254 60 176.754 59.8 175.354 59.4C173.994 58.96 172.674 58.28 171.394 57.36C170.154 56.44 169.174 55.12 168.454 53.4C167.734 51.68 167.374 49.64 167.374 47.28V21.3H162.094V20.52H167.374V10.44H170.494C173.294 10.44 175.674 11.42 177.634 13.38C179.594 15.34 180.574 17.72 180.574 20.52H191.494V21.3H180.574V51.24C180.574 53.2 180.834 54.6 181.354 55.44C181.914 56.28 182.894 56.7 184.294 56.7C185.974 56.7 187.554 55.8 189.034 54C190.554 52.2 191.374 49.38 191.494 45.54H192.274ZM207.401 7.92C207.401 9.88 206.721 11.56 205.361 12.96C204.001 14.36 202.241 15.06 200.081 15.06C197.961 15.06 196.221 14.36 194.861 12.96C193.541 11.56 192.881 9.88 192.881 7.92C192.881 5.92 193.541 4.24 194.861 2.88C196.221 1.48 197.961 0.780001 200.081 0.780001C202.241 0.780001 204.001 1.48 205.361 2.88C206.721 4.24 207.401 5.92 207.401 7.92ZM193.601 21.24C197.241 21.24 200.341 22.54 202.901 25.14C205.501 27.7 206.801 30.8 206.801 34.44V60C203.161 60 200.041 58.72 197.441 56.16C194.881 53.6 193.601 50.48 193.601 46.8V21.24ZM250.523 39.66C250.523 43.54 249.483 47.08 247.403 50.28C245.323 53.44 242.703 55.86 239.543 57.54C236.423 59.18 233.183 60 229.823 60C226.463 60 223.203 59.18 220.043 57.54C216.923 55.86 214.323 53.44 212.243 50.28C210.163 47.08 209.123 43.54 209.123 39.66C209.123 33.94 211.263 29.18 215.543 25.38C219.823 21.58 224.583 19.68 229.823 19.68C235.103 19.68 239.863 21.58 244.103 25.38C248.383 29.18 250.523 33.94 250.523 39.66ZM223.103 39.66C223.103 46.38 223.623 51.32 224.663 54.48C225.743 57.64 227.463 59.22 229.823 59.22C232.183 59.22 233.903 57.64 234.983 54.48C236.063 51.32 236.603 46.38 236.603 39.66C236.603 33.06 236.063 28.22 234.983 25.14C233.903 22.02 232.183 20.46 229.823 20.46C227.463 20.46 225.743 22 224.663 25.08C223.623 28.16 223.103 33.02 223.103 39.66ZM274.252 24.12C271.932 24.12 270.072 25.42 268.672 28.02C267.272 30.62 266.452 33.96 266.212 38.04V60H264.172C261.092 60 258.452 58.92 256.252 56.76C254.092 54.56 253.012 51.92 253.012 48.84V21.24H255.052C258.132 21.24 260.752 22.34 262.912 24.54C265.112 26.7 266.212 29.32 266.212 32.4C267.932 24.44 272.292 20.46 279.292 20.46C283.332 20.46 286.452 21.7 288.652 24.18C290.892 26.66 292.012 30 292.012 34.2V60H289.972C286.892 60 284.252 58.92 282.052 56.76C279.892 54.56 278.812 51.92 278.812 48.84V30.84C278.812 26.36 277.292 24.12 274.252 24.12ZM315.367 35.46C313.967 34.62 312.447 34.2 310.807 34.2C309.167 34.2 307.627 34.64 306.187 35.52C304.787 36.4 303.727 37.64 303.007 39.24L293.647 60H292.747L317.707 4.98L343.687 60C339.007 60 334.687 58.76 330.727 56.28C326.807 53.8 323.867 50.44 321.907 46.2L318.607 39.12C317.847 37.52 316.767 36.3 315.367 35.46ZM371.801 60.12C368.241 60.12 365.281 59.04 362.921 56.88C360.561 54.72 358.921 51.58 358.001 47.46V71.76H356.501C353.301 71.76 350.541 70.6 348.221 68.28C345.941 66 344.801 63.26 344.801 60.06V20.58H346.301C349.541 20.58 352.301 21.72 354.581 24C356.861 26.28 358.001 29.04 358.001 32.28C358.921 28.28 360.581 25.2 362.981 23.04C365.381 20.88 368.361 19.8 371.921 19.8C376.721 19.8 380.521 21.56 383.321 25.08C386.121 28.6 387.521 33.5 387.521 39.78C387.521 46.22 386.101 51.22 383.261 54.78C380.461 58.34 376.641 60.12 371.801 60.12ZM358.001 39.78C358.001 44.74 358.821 48.86 360.461 52.14C362.141 55.38 364.061 57 366.221 57C368.421 57 370.201 55.42 371.561 52.26C372.921 49.1 373.601 44.94 373.601 39.78C373.601 34.74 372.921 30.68 371.561 27.6C370.201 24.48 368.421 22.92 366.221 22.92C364.061 22.92 362.141 24.52 360.461 27.72C358.821 30.88 358.001 34.9 358.001 39.78ZM417.086 60.12C413.526 60.12 410.566 59.04 408.206 56.88C405.846 54.72 404.206 51.58 403.286 47.46V71.76H401.786C398.586 71.76 395.826 70.6 393.506 68.28C391.226 66 390.086 63.26 390.086 60.06V20.58H391.586C394.826 20.58 397.586 21.72 399.866 24C402.146 26.28 403.286 29.04 403.286 32.28C404.206 28.28 405.866 25.2 408.266 23.04C410.666 20.88 413.646 19.8 417.206 19.8C422.006 19.8 425.806 21.56 428.606 25.08C431.406 28.6 432.806 33.5 432.806 39.78C432.806 46.22 431.386 51.22 428.546 54.78C425.746 58.34 421.926 60.12 417.086 60.12ZM403.286 39.78C403.286 44.74 404.106 48.86 405.746 52.14C407.426 55.38 409.346 57 411.506 57C413.706 57 415.486 55.42 416.846 52.26C418.206 49.1 418.886 44.94 418.886 39.78C418.886 34.74 418.206 30.68 416.846 27.6C415.486 24.48 413.706 22.92 411.506 22.92C409.346 22.92 407.426 24.52 405.746 27.72C404.106 30.88 403.286 34.9 403.286 39.78Z" fill="black"/>
<path d="M114.112 97.16C111.088 97.16 108.8 94.776 108.8 91.704C108.8 88.552 111.216 86.12 114.16 86.12C115.76 86.12 117.2 86.84 118.192 87.992L117.344 88.712C116.512 87.752 115.392 87.224 114.128 87.224C111.744 87.224 110 89.08 110 91.624C110 94.184 111.776 96.056 114.192 96.056C115.52 96.056 116.64 95.48 117.392 94.584L118.192 95.272C117.2 96.44 115.776 97.16 114.112 97.16ZM129.382 97.16C126.422 97.16 124.022 94.696 124.022 91.64C124.022 88.6 126.438 86.12 129.382 86.12C132.342 86.12 134.742 88.584 134.742 91.64C134.742 94.664 132.342 97.16 129.382 97.16ZM129.382 96.056C131.75 96.056 133.542 94.168 133.542 91.64C133.542 89.112 131.75 87.224 129.382 87.224C127.014 87.224 125.222 89.112 125.222 91.64C125.222 94.168 127.014 96.056 129.382 96.056ZM150.094 97.32L142.862 88.664V97H141.774V85.96H142.094L149.326 94.616V86.28H150.414V97.32H150.094ZM158.09 97V86.28H163.61V87.32H159.21V90.92H162.57V91.96H159.21V95.96H163.69V97H158.09ZM175.078 97.16C172.054 97.16 169.766 94.776 169.766 91.704C169.766 88.552 172.182 86.12 175.126 86.12C176.726 86.12 178.166 86.84 179.158 87.992L178.31 88.712C177.478 87.752 176.358 87.224 175.094 87.224C172.71 87.224 170.966 89.08 170.966 91.624C170.966 94.184 172.742 96.056 175.158 96.056C176.486 96.056 177.606 95.48 178.358 94.584L179.158 95.272C178.166 96.44 176.742 97.16 175.078 97.16ZM188.188 97V87.32H184.668V86.28H192.828V87.32H189.308V97H188.188ZM197.311 97L201.391 85.96H201.711L205.791 97H204.559L203.551 94.184H199.487L198.479 97H197.311ZM199.855 93.144H203.183L201.519 88.504L199.855 93.144ZM225.496 97.16C222.472 97.16 220.184 94.776 220.184 91.704C220.184 88.552 222.6 86.12 225.544 86.12C227.144 86.12 228.584 86.84 229.576 87.992L228.728 88.712C227.896 87.752 226.776 87.224 225.512 87.224C223.128 87.224 221.384 89.08 221.384 91.624C221.384 94.184 223.16 96.056 225.576 96.056C226.904 96.056 228.024 95.48 228.776 94.584L229.576 95.272C228.584 96.44 227.16 97.16 225.496 97.16ZM240.766 97.16C237.806 97.16 235.406 94.696 235.406 91.64C235.406 88.6 237.822 86.12 240.766 86.12C243.726 86.12 246.126 88.584 246.126 91.64C246.126 94.664 243.726 97.16 240.766 97.16ZM240.766 96.056C243.134 96.056 244.926 94.168 244.926 91.64C244.926 89.112 243.134 87.224 240.766 87.224C238.398 87.224 236.606 89.112 236.606 91.64C236.606 94.168 238.398 96.056 240.766 96.056ZM261.479 97.32L254.247 88.664V97H253.159V85.96H253.479L260.711 94.616V86.28H261.799V97.32H261.479ZM277.79 97V86.28H281.294C284.574 86.28 286.99 88.552 286.99 91.64C286.99 94.712 284.574 97 281.294 97H277.79ZM278.91 95.96H281.278C283.902 95.96 285.79 94.136 285.79 91.64C285.79 89.128 283.902 87.32 281.278 87.32H278.91V95.96ZM294.028 97V86.28H295.148V97H294.028ZM307.547 97.16C304.587 97.16 302.187 94.696 302.187 91.64C302.187 88.6 304.603 86.12 307.547 86.12C310.507 86.12 312.907 88.584 312.907 91.64C312.907 94.664 310.507 97.16 307.547 97.16ZM307.547 96.056C309.915 96.056 311.707 94.168 311.707 91.64C311.707 89.112 309.915 87.224 307.547 87.224C305.179 87.224 303.387 89.112 303.387 91.64C303.387 94.168 305.179 96.056 307.547 96.056ZM322.516 97.16C321.076 97.16 319.78 96.44 318.98 95.144L319.844 94.44C320.596 95.576 321.46 96.136 322.532 96.136C323.78 96.136 324.628 95.384 324.628 94.264C324.628 93.288 323.972 92.616 322.436 92.008C320.516 91.256 319.684 90.28 319.684 88.904C319.684 87.256 320.868 86.12 322.596 86.12C323.796 86.12 324.836 86.664 325.636 87.752L324.772 88.456C324.132 87.56 323.428 87.16 322.58 87.16C321.492 87.16 320.804 87.816 320.804 88.808C320.804 89.752 321.412 90.392 322.916 90.984C324.852 91.736 325.748 92.744 325.748 94.168C325.748 95.928 324.404 97.16 322.516 97.16Z" fill="black"/>
</svg>
