<svg width="431" height="72" viewBox="0 0 431 72" fill="none" xmlns="http://www.w3.org/2000/svg">
<path d="M29.86 4.98C33.42 4.98 36.46 6.24 38.98 8.76C41.54 11.28 42.82 14.32 42.82 17.88V60C39.26 60 36.2 58.74 33.64 56.22C31.12 53.7 29.86 50.64 29.86 47.04V46.74C29.02 51.02 27.4 54.3 25 56.58C22.6 58.86 19.58 60 15.94 60C11.06 60 7.2 58.22 4.36 54.66C1.56 51.1 0.16 46.1 0.16 39.66C0.16 33.38 1.56 28.48 4.36 24.96C7.16 21.44 10.96 19.68 15.76 19.68C19.24 19.68 22.18 20.72 24.58 22.8C26.98 24.88 28.66 27.9 29.62 31.86V4.98H29.86ZM14.14 39.66C14.14 44.82 14.82 48.98 16.18 52.14C17.54 55.3 19.32 56.88 21.52 56.88C23.48 56.88 25.24 55.5 26.8 52.74C28.4 49.98 29.34 46.42 29.62 42.06V37.26C29.34 33.02 28.4 29.56 26.8 26.88C25.24 24.16 23.48 22.8 21.52 22.8C19.32 22.8 17.54 24.34 16.18 27.42C14.82 30.5 14.14 34.58 14.14 39.66ZM84.3175 45.48C83.8775 50.32 82.1375 53.96 79.0975 56.4C76.0575 58.8 72.1775 60 67.4575 60C60.8575 60 55.4975 58.14 51.3775 54.42C47.2575 50.7 45.1975 45.82 45.1975 39.78C45.1975 33.78 47.0775 28.94 50.8375 25.26C54.6375 21.54 59.5575 19.68 65.5975 19.68C70.9975 19.68 75.4175 21.36 78.8575 24.72C82.2975 28.08 83.9375 33.16 83.7775 39.96H59.1775C59.1775 46.36 60.1975 50.94 62.2375 53.7C64.3175 56.46 67.3575 57.84 71.3575 57.84C74.5975 57.84 77.3375 56.82 79.5775 54.78C81.8575 52.74 83.1975 49.64 83.5975 45.48H84.3175ZM65.5375 20.46C63.3375 20.46 61.7375 22.04 60.7375 25.2C59.7375 28.32 59.2175 33 59.1775 39.24H70.9975C70.9975 39 70.9975 38.6 70.9975 38.04C70.9975 36.48 70.9775 35.26 70.9375 34.38C70.9375 33.46 70.8975 32.2 70.8175 30.6C70.7375 28.96 70.5775 27.66 70.3375 26.7C70.0975 25.7 69.7775 24.68 69.3775 23.64C69.0175 22.56 68.4975 21.76 67.8175 21.24C67.1775 20.72 66.4175 20.46 65.5375 20.46ZM120.044 20.46H121.004L103.064 60H103.004L83.3837 20.46H84.0437C88.0037 20.46 91.6437 21.54 94.9637 23.7C98.3237 25.82 100.824 28.66 102.464 32.22L105.644 39.12C106.244 40.36 107.244 40.98 108.644 40.98C110.084 40.98 111.064 40.36 111.584 39.12L120.044 20.46ZM161.324 39.66C161.324 43.54 160.284 47.08 158.204 50.28C156.124 53.44 153.504 55.86 150.344 57.54C147.224 59.18 143.984 60 140.624 60C137.264 60 134.004 59.18 130.844 57.54C127.724 55.86 125.124 53.44 123.044 50.28C120.964 47.08 119.924 43.54 119.924 39.66C119.924 33.94 122.064 29.18 126.344 25.38C130.624 21.58 135.384 19.68 140.624 19.68C145.904 19.68 150.664 21.58 154.904 25.38C159.184 29.18 161.324 33.94 161.324 39.66ZM133.904 39.66C133.904 46.38 134.424 51.32 135.464 54.48C136.544 57.64 138.264 59.22 140.624 59.22C142.984 59.22 144.704 57.64 145.784 54.48C146.864 51.32 147.404 46.38 147.404 39.66C147.404 33.06 146.864 28.22 145.784 25.14C144.704 22.02 142.984 20.46 140.624 20.46C138.264 20.46 136.544 22 135.464 25.08C134.424 28.16 133.904 33.02 133.904 39.66ZM190.274 45.54C190.274 50.38 189.034 54 186.554 56.4C184.074 58.8 181.174 60 177.854 60C176.254 60 174.754 59.8 173.354 59.4C171.994 58.96 170.674 58.28 169.394 57.36C168.154 56.44 167.174 55.12 166.454 53.4C165.734 51.68 165.374 49.64 165.374 47.28V21.3H160.094V20.52H165.374V10.44H168.494C171.294 10.44 173.674 11.42 175.634 13.38C177.594 15.34 178.574 17.72 178.574 20.52H189.494V21.3H178.574V51.24C178.574 53.2 178.834 54.6 179.354 55.44C179.914 56.28 180.894 56.7 182.294 56.7C183.974 56.7 185.554 55.8 187.034 54C188.554 52.2 189.374 49.38 189.494 45.54H190.274ZM205.401 7.92C205.401 9.88 204.721 11.56 203.361 12.96C202.001 14.36 200.241 15.06 198.081 15.06C195.961 15.06 194.221 14.36 192.861 12.96C191.541 11.56 190.881 9.88 190.881 7.92C190.881 5.92 191.541 4.24 192.861 2.88C194.221 1.48 195.961 0.780001 198.081 0.780001C200.241 0.780001 202.001 1.48 203.361 2.88C204.721 4.24 205.401 5.92 205.401 7.92ZM191.601 21.24C195.241 21.24 198.341 22.54 200.901 25.14C203.501 27.7 204.801 30.8 204.801 34.44V60C201.161 60 198.041 58.72 195.441 56.16C192.881 53.6 191.601 50.48 191.601 46.8V21.24ZM248.523 39.66C248.523 43.54 247.483 47.08 245.403 50.28C243.323 53.44 240.703 55.86 237.543 57.54C234.423 59.18 231.183 60 227.823 60C224.463 60 221.203 59.18 218.043 57.54C214.923 55.86 212.323 53.44 210.243 50.28C208.163 47.08 207.123 43.54 207.123 39.66C207.123 33.94 209.263 29.18 213.543 25.38C217.823 21.58 222.583 19.68 227.823 19.68C233.103 19.68 237.863 21.58 242.103 25.38C246.383 29.18 248.523 33.94 248.523 39.66ZM221.103 39.66C221.103 46.38 221.623 51.32 222.663 54.48C223.743 57.64 225.463 59.22 227.823 59.22C230.183 59.22 231.903 57.64 232.983 54.48C234.063 51.32 234.603 46.38 234.603 39.66C234.603 33.06 234.063 28.22 232.983 25.14C231.903 22.02 230.183 20.46 227.823 20.46C225.463 20.46 223.743 22 222.663 25.08C221.623 28.16 221.103 33.02 221.103 39.66ZM272.252 24.12C269.932 24.12 268.072 25.42 266.672 28.02C265.272 30.62 264.452 33.96 264.212 38.04V60H262.172C259.092 60 256.452 58.92 254.252 56.76C252.092 54.56 251.012 51.92 251.012 48.84V21.24H253.052C256.132 21.24 258.752 22.34 260.912 24.54C263.112 26.7 264.212 29.32 264.212 32.4C265.932 24.44 270.292 20.46 277.292 20.46C281.332 20.46 284.452 21.7 286.652 24.18C288.892 26.66 290.012 30 290.012 34.2V60H287.972C284.892 60 282.252 58.92 280.052 56.76C277.892 54.56 276.812 51.92 276.812 48.84V30.84C276.812 26.36 275.292 24.12 272.252 24.12ZM313.367 35.46C311.967 34.62 310.447 34.2 308.807 34.2C307.167 34.2 305.627 34.64 304.187 35.52C302.787 36.4 301.727 37.64 301.007 39.24L291.647 60H290.747L315.707 4.98L341.687 60C337.007 60 332.687 58.76 328.727 56.28C324.807 53.8 321.867 50.44 319.907 46.2L316.607 39.12C315.847 37.52 314.767 36.3 313.367 35.46ZM369.801 60.12C366.241 60.12 363.281 59.04 360.921 56.88C358.561 54.72 356.921 51.58 356.001 47.46V71.76H354.501C351.301 71.76 348.541 70.6 346.221 68.28C343.941 66 342.801 63.26 342.801 60.06V20.58H344.301C347.541 20.58 350.301 21.72 352.581 24C354.861 26.28 356.001 29.04 356.001 32.28C356.921 28.28 358.581 25.2 360.981 23.04C363.381 20.88 366.361 19.8 369.921 19.8C374.721 19.8 378.521 21.56 381.321 25.08C384.121 28.6 385.521 33.5 385.521 39.78C385.521 46.22 384.101 51.22 381.261 54.78C378.461 58.34 374.641 60.12 369.801 60.12ZM356.001 39.78C356.001 44.74 356.821 48.86 358.461 52.14C360.141 55.38 362.061 57 364.221 57C366.421 57 368.201 55.42 369.561 52.26C370.921 49.1 371.601 44.94 371.601 39.78C371.601 34.74 370.921 30.68 369.561 27.6C368.201 24.48 366.421 22.92 364.221 22.92C362.061 22.92 360.141 24.52 358.461 27.72C356.821 30.88 356.001 34.9 356.001 39.78ZM415.086 60.12C411.526 60.12 408.566 59.04 406.206 56.88C403.846 54.72 402.206 51.58 401.286 47.46V71.76H399.786C396.586 71.76 393.826 70.6 391.506 68.28C389.226 66 388.086 63.26 388.086 60.06V20.58H389.586C392.826 20.58 395.586 21.72 397.866 24C400.146 26.28 401.286 29.04 401.286 32.28C402.206 28.28 403.866 25.2 406.266 23.04C408.666 20.88 411.646 19.8 415.206 19.8C420.006 19.8 423.806 21.56 426.606 25.08C429.406 28.6 430.806 33.5 430.806 39.78C430.806 46.22 429.386 51.22 426.546 54.78C423.746 58.34 419.926 60.12 415.086 60.12ZM401.286 39.78C401.286 44.74 402.106 48.86 403.746 52.14C405.426 55.38 407.346 57 409.506 57C411.706 57 413.486 55.42 414.846 52.26C416.206 49.1 416.886 44.94 416.886 39.78C416.886 34.74 416.206 30.68 414.846 27.6C413.486 24.48 411.706 22.92 409.506 22.92C407.346 22.92 405.426 24.52 403.746 27.72C402.106 30.88 401.286 34.9 401.286 39.78Z" fill="black"/>
</svg>
